<?xml version="1.0" encoding="UTF-8" standalone="no"?> <svg width="512" height="512" viewBox="0 0 512 512" fill="none" xmlns="http://www.w3.org/2000/svg">
<path d="M472 24H296C287.163 24 280 31.1634 280 40V304C280 312.837 287.163 320 296 320H472C480.837 320 488 312.837 488 304V40C488 31.1634 480.837 24 472 24Z" fill="#31C292"/>
<path d="M216 24H40C35.7565 24 31.6869 25.6857 28.6863 28.6863C25.6857 31.6869 24 35.7565 24 40V304C24 308.243 25.6857 312.313 28.6863 315.314C31.6869 318.314 35.7565 320 40 320H216C220.243 320 224.313 318.314 227.314 315.314C230.314 312.313 232 308.243 232 304V40C232 35.7565 230.314 31.6869 227.314 28.6863C224.313 25.6857 220.243 24 216 24V24Z" fill="#FF8662"/>
<path d="M222.51 375.435C220.638 368.696 216.609 362.756 211.041 358.524C205.473 354.292 198.671 352 191.677 352H144C139.757 352 135.687 353.686 132.686 356.686C129.686 359.687 128 363.756 128 368V368H41.3242C38.2298 368 35.1966 368.862 32.5644 370.488C29.9322 372.115 27.805 374.443 26.4212 377.211C25.0373 379.978 24.4515 383.077 24.7295 386.158C25.0074 389.24 26.138 392.184 27.9946 394.659V394.659C30.5655 398.087 34.3583 400.393 38.585 401.097L165.353 422.225C168.498 422.75 171.415 424.202 173.73 426.395C176.044 428.589 177.65 431.424 178.342 434.537L192 496H256L222.51 375.435Z" fill="#F2E6D2"/>
<path d="M120 24H72V96H120V24Z" fill="#FFBFAC"/>
<path d="M470.676 368H384V368C384 363.756 382.314 359.687 379.314 356.686C376.313 353.686 372.243 352 368 352H320.323C313.329 352 306.527 354.292 300.959 358.524C295.39 362.756 291.362 368.696 289.49 375.435L256 496H320L333.658 434.537C334.35 431.424 335.956 428.589 338.27 426.395C340.585 424.202 343.502 422.75 346.647 422.225L473.415 401.097C477.642 400.393 481.434 398.087 484.005 394.659V394.659C485.862 392.184 486.993 389.24 487.271 386.158C487.548 383.077 486.963 379.978 485.579 377.211C484.195 374.443 482.068 372.115 479.436 370.488C476.803 368.862 473.77 368 470.676 368V368Z" fill="#F2E6D2"/>
<path d="M376 24.0001H328V96.0001H376V24.0001Z" fill="#AAE5CF"/>
<path d="M290.343 173.657L258.584 205.415C255.714 208.286 254.042 212.14 253.907 216.197C253.772 220.254 255.184 224.21 257.857 227.265L289.979 263.976C291.051 265.201 292.471 266.07 294.05 266.467C295.628 266.864 297.29 266.77 298.814 266.197C300.337 265.625 301.65 264.601 302.577 263.263C303.503 261.925 304 260.336 304 258.708V240H384C388.243 240 392.313 238.314 395.314 235.314C398.314 232.313 400 228.243 400 224V208C400 203.757 398.314 199.687 395.314 196.686C392.313 193.686 388.243 192 384 192H304V179.314C304 177.731 303.531 176.185 302.652 174.869C301.773 173.554 300.523 172.528 299.061 171.923C297.6 171.317 295.991 171.159 294.439 171.467C292.887 171.776 291.462 172.538 290.343 173.657Z" fill="#F2E6D2"/>
<path d="M180.878 400.192L177.293 396.607C174.343 393.657 170.343 392 166.171 392H144C139.644 391.997 135.371 390.809 131.638 388.565C127.906 386.32 124.853 383.103 122.808 379.257C122.198 378.079 121.902 376.764 121.949 375.439C121.996 374.113 122.385 372.822 123.076 371.69C123.768 370.559 124.74 369.624 125.898 368.978C127.056 368.331 128.361 367.995 129.688 368H130.39C131.763 368.026 133.105 368.412 134.282 369.12C135.458 369.828 136.428 370.833 137.094 372.035C137.799 373.241 138.807 374.241 140.019 374.937C141.23 375.633 142.603 375.999 144 376H166.172C170.338 376 174.464 376.821 178.314 378.415C182.163 380.01 185.661 382.347 188.607 385.293L192.192 388.878C192.91 389.596 193.479 390.448 193.868 391.386C194.256 392.323 194.456 393.328 194.456 394.343C194.456 395.358 194.256 396.363 193.867 397.301C193.479 398.238 192.91 399.09 192.192 399.808L191.808 400.193C190.358 401.642 188.392 402.456 186.343 402.456C184.293 402.456 182.328 401.642 180.878 400.192V400.192Z" fill="#DACFBD"/>
<path d="M320 400C319.257 399.257 318.668 398.375 318.266 397.405C317.864 396.434 317.657 395.394 317.657 394.343C317.657 393.293 317.864 392.252 318.266 391.282C318.668 390.311 319.257 389.429 320 388.686L325.657 383.029C327.885 380.801 330.531 379.033 333.443 377.827C336.355 376.621 339.475 376 342.627 376H368C369.397 375.999 370.77 375.633 371.981 374.937C373.193 374.241 374.201 373.241 374.906 372.035C375.572 370.833 376.542 369.828 377.718 369.12C378.895 368.412 380.237 368.026 381.611 368H382.312C383.639 367.995 384.944 368.331 386.102 368.978C387.26 369.624 388.232 370.559 388.924 371.69C389.615 372.822 390.004 374.113 390.051 375.439C390.098 376.764 389.802 378.079 389.192 379.257C387.147 383.103 384.094 386.32 380.362 388.565C376.629 390.809 372.356 391.997 368 392H342.627C341.577 392 340.537 392.207 339.566 392.609C338.596 393.011 337.714 393.6 336.971 394.343L331.314 400C329.814 401.5 327.779 402.343 325.657 402.343C323.535 402.343 321.501 401.501 320 400V400Z" fill="#DACFBD"/>
<path d="M292.536 319.613C293.673 319.868 294.835 319.998 296 320H472C476.243 320 480.313 318.314 483.314 315.314C486.314 312.313 488 308.244 488 304V112C488 222.665 401.572 313.13 292.536 319.613Z" fill="#2AA57C"/>
<path d="M36.5356 319.613C37.6729 319.868 38.8346 319.997 40 320H216C220.243 320 224.313 318.314 227.314 315.314C230.314 312.313 232 308.243 232 304V112C232 222.665 145.572 313.129 36.5356 319.613Z" fill="#D97253"/>
<path d="M221.657 109.657L253.415 141.415C256.286 144.286 257.958 148.14 258.093 152.197C258.228 156.254 256.816 160.21 254.143 163.265L222.021 199.976C220.949 201.201 219.529 202.07 217.95 202.467C216.372 202.864 214.71 202.77 213.186 202.197C211.663 201.625 210.35 200.601 209.423 199.263C208.496 197.925 208 196.336 208 194.708V176H128C123.757 176 119.687 174.314 116.686 171.314C113.686 168.313 112 164.243 112 160V144C112 139.757 113.686 135.687 116.686 132.686C119.687 129.686 123.757 128 128 128H208V115.314C208 113.731 208.469 112.185 209.348 110.869C210.227 109.554 211.477 108.528 212.939 107.923C214.4 107.317 216.009 107.159 217.561 107.467C219.113 107.776 220.538 108.538 221.657 109.657Z" fill="#F2E6D2"/>
<path d="M470.676 360H390.624C388.965 355.324 385.9 351.277 381.849 348.412C377.799 345.547 372.961 344.006 368 344H320.322C311.585 344.02 303.092 346.892 296.136 352.179C289.18 357.467 284.14 364.881 281.782 373.294L256 466.11L230.218 373.294C227.86 364.881 222.82 357.467 215.864 352.179C208.908 346.892 200.415 344.02 191.678 344H144C139.039 344.006 134.201 345.547 130.151 348.412C126.1 351.277 123.035 355.324 121.376 360H41.3243C35.1357 360 29.1733 362.327 24.6204 366.519C20.0675 370.71 17.2569 376.46 16.7464 382.628C16.236 388.795 18.0629 394.93 21.8647 399.813C25.6665 404.696 31.1652 407.971 37.2696 408.989L164.037 430.117C165.612 430.374 167.073 431.099 168.231 432.196C169.389 433.294 170.191 434.714 170.532 436.272L184.191 497.735L199.81 494.265L186.151 432.802C185.127 428.126 182.722 423.866 179.248 420.574C175.774 417.281 171.392 415.108 166.668 414.334L39.9005 393.207C37.7016 392.844 35.7284 391.644 34.3946 389.859C33.4294 388.572 32.8416 387.042 32.6971 385.44C32.5526 383.837 32.8571 382.227 33.5766 380.788C34.296 379.349 35.4019 378.139 36.7703 377.293C38.1388 376.448 39.7156 376 41.3243 376H121.376C123.035 380.676 126.1 384.723 130.151 387.588C134.201 390.453 139.039 391.994 144 392H169.373C170.424 391.997 171.465 392.203 172.436 392.605C173.407 393.007 174.288 393.598 175.029 394.343L186.343 405.657L197.657 394.343L186.344 383.03C184.12 380.794 181.476 379.022 178.563 377.815C175.65 376.608 172.526 375.991 169.373 376H144C141.878 376 139.844 375.157 138.343 373.657C136.843 372.157 136 370.122 136 368C136 365.878 136.843 363.843 138.343 362.343C139.844 360.843 141.878 360 144 360H191.678C196.92 360.012 202.016 361.735 206.189 364.908C210.363 368.08 213.387 372.529 214.802 377.577L248.292 498.141L256 496L263.708 498.141L297.198 377.577C298.613 372.529 301.637 368.08 305.811 364.908C309.984 361.735 315.08 360.012 320.322 360H368C370.122 360 372.157 360.843 373.657 362.343C375.157 363.843 376 365.878 376 368C376 370.122 375.157 372.157 373.657 373.657C372.157 375.157 370.122 376 368 376H342.627C339.474 375.991 336.351 376.608 333.438 377.815C330.525 379.022 327.88 380.794 325.656 383.03L314.343 394.343L325.657 405.657L336.971 394.343C337.712 393.598 338.593 393.007 339.564 392.605C340.535 392.203 341.576 391.997 342.627 392H368C372.961 391.994 377.799 390.453 381.849 387.588C385.9 384.723 388.965 380.676 390.624 376H470.676C472.284 376 473.861 376.448 475.23 377.294C476.598 378.139 477.704 379.349 478.424 380.788C479.143 382.227 479.448 383.837 479.303 385.439C479.159 387.042 478.572 388.572 477.607 389.859C476.272 391.644 474.299 392.844 472.1 393.207L345.332 414.334C340.609 415.108 336.226 417.281 332.752 420.574C329.278 423.866 326.873 428.126 325.849 432.802L312.19 494.265L327.81 497.735L341.468 436.272C341.809 434.714 342.611 433.294 343.769 432.196C344.927 431.099 346.388 430.374 347.963 430.117L474.73 408.989C480.835 407.971 486.334 404.696 490.136 399.813C493.937 394.93 495.764 388.795 495.254 382.628C494.743 376.46 491.933 370.71 487.38 366.518C482.827 362.327 476.864 360 470.676 360V360Z" fill="black"/>
<path d="M472 16H296C289.637 16.0072 283.537 18.5381 279.037 23.0374C274.538 27.5367 272.007 33.637 272 40V136H288V40C288.002 37.879 288.846 35.8456 290.346 34.3458C291.846 32.8461 293.879 32.0024 296 32H320V104H384V32H472C474.121 32.0024 476.154 32.8461 477.654 34.3458C479.154 35.8456 479.998 37.879 480 40V304C479.998 306.121 479.154 308.154 477.654 309.654C476.154 311.154 474.121 311.998 472 312H296C293.879 311.998 291.846 311.154 290.346 309.654C288.846 308.154 288.002 306.121 288 304V288H272V304C272.007 310.363 274.538 316.463 279.037 320.963C283.537 325.462 289.637 327.993 296 328H472C478.363 327.993 484.463 325.462 488.963 320.963C493.462 316.463 495.993 310.363 496 304V40C495.993 33.637 493.462 27.5367 488.963 23.0374C484.463 18.5381 478.363 16.0072 472 16V16ZM368 88H336V32H368V88Z" fill="black"/>
<path d="M40 328H216C222.363 327.993 228.463 325.462 232.963 320.963C237.462 316.463 239.993 310.363 240 304V232H224V304C223.998 306.121 223.154 308.154 221.654 309.654C220.154 311.154 218.121 311.998 216 312H40C37.879 311.998 35.8456 311.154 34.3458 309.654C32.8461 308.154 32.0024 306.121 32 304V40C32.0024 37.879 32.8461 35.8456 34.3458 34.3458C35.8456 32.8461 37.879 32.0024 40 32H64V104H128V32H216C218.121 32.0024 220.154 32.8461 221.654 34.3458C223.154 35.8456 223.998 37.879 224 40V88H240V40C239.993 33.637 237.462 27.5367 232.963 23.0374C228.463 18.5381 222.363 16.0072 216 16H40C33.637 16.0072 27.5367 18.5381 23.0374 23.0374C18.5381 27.5367 16.0072 33.637 16 40V304C16.0072 310.363 18.5381 316.463 23.0374 320.963C27.5367 325.462 33.637 327.993 40 328V328ZM80 32H112V88H80V32Z" fill="black"/>
<path d="M227.313 104C225.076 101.762 222.225 100.238 219.121 99.6211C216.018 99.0038 212.801 99.3207 209.877 100.532C206.953 101.743 204.455 103.793 202.697 106.425C200.938 109.056 200 112.149 200 115.314V120H128C121.637 120.007 115.537 122.538 111.037 127.038C106.538 131.537 104.007 137.637 104 144V160C104.007 166.363 106.538 172.463 111.037 176.963C115.537 181.462 121.637 183.993 128 184H200V194.709C199.982 197.968 200.968 201.154 202.823 203.834C204.679 206.513 207.315 208.557 210.372 209.686C212.19 210.373 214.117 210.726 216.061 210.729C218.334 210.726 220.58 210.234 222.647 209.288C224.714 208.342 226.553 206.963 228.041 205.245L260.163 168.533C264.159 163.945 266.268 158.013 266.066 151.931C265.864 145.85 263.365 140.071 259.072 135.759L227.314 104L227.313 104ZM248.122 157.997L216 194.7V168H128C125.879 167.998 123.846 167.154 122.346 165.654C120.846 164.154 120.002 162.121 120 160V144C120.002 141.879 120.846 139.846 122.346 138.346C123.846 136.846 125.879 136.002 128 136H216L216.005 115.318L247.759 147.073C249.189 148.51 250.022 150.436 250.09 152.463C250.157 154.49 249.454 156.468 248.122 157.997V157.997Z" fill="black"/>
<path d="M302.123 164.532C299.201 163.315 295.982 162.995 292.877 163.612C289.772 164.23 286.921 165.757 284.687 168L252.929 199.758C248.636 204.071 246.137 209.85 245.934 215.931C245.732 222.012 247.841 227.945 251.837 232.533L283.959 269.245C285.447 270.963 287.286 272.342 289.353 273.288C291.42 274.235 293.666 274.726 295.94 274.729C297.883 274.726 299.81 274.373 301.628 273.686C304.686 272.557 307.321 270.513 309.177 267.834C311.032 265.154 312.018 261.968 312 258.709V248H384C390.363 247.993 396.463 245.462 400.963 240.963C405.462 236.463 407.993 230.363 408 224V208C407.993 201.637 405.462 195.537 400.963 191.038C396.463 186.538 390.363 184.007 384 184H312V179.314C312.006 176.148 311.07 173.052 309.312 170.419C307.553 167.787 305.05 165.738 302.123 164.532V164.532ZM296.057 179.264C296.033 179.277 296.007 179.287 295.98 179.293L296.057 179.264ZM384 200C386.121 200.002 388.154 200.846 389.654 202.346C391.154 203.846 391.998 205.879 392 208V224C391.998 226.121 391.154 228.154 389.654 229.654C388.154 231.154 386.121 231.998 384 232H296L295.994 258.702L263.878 221.997C262.546 220.468 261.843 218.49 261.91 216.463C261.978 214.436 262.811 212.51 264.242 211.072L296 179.314V200H384Z" fill="black"/>
</svg>
